<svg id="Layer_1" data-name="Layer 1" xmlns="http://www.w3.org/2000/svg" viewBox="0 0 324.42 176.28"><defs><style>.cls-1{fill:#1c1e27;}.cls-2{fill:#e07a0c;}.cls-3{isolation:isolate;}.cls-4{fill:#f29c04;}</style></defs><title>logo</title><path class="cls-1" d="M87.11,64c0,7.1,5.53,7.66,7.31,7.66h0l33.85-.53c4.35,0,6.94-2.64,6.94-7.07V59.84c.11.12.21.25.33.37A6.85,6.85,0,0,0,140.39,62h.33L165,61.38a7.06,7.06,0,0,0,4.89-1.9,7.8,7.8,0,0,0,3.46.72h5.55c1.7,0,7.24-.55,7.24-7.65V43.49A6.34,6.34,0,0,0,191,40.6a20.41,20.41,0,0,0,7.7,6V64a7.8,7.8,0,0,0,2.1,5.82,6.81,6.81,0,0,0,4.91,1.84h.33l31.07-.59c4.3-.16,6.76-2.74,6.76-7.07V55.16a7.51,7.51,0,0,0-1.38-4.65c1.44-1.08,2.62-2.95,2.62-6.22V11c0-7.1-5.54-7.66-7.24-7.66h-5.55a6.65,6.65,0,0,0-7,5.68,22.91,22.91,0,0,0-16.67-6.86c-13.24,0-20.71,8.94-21.88,18.54-.2,0-.4-.08-.61-.1V12.2c0-7.1-5.54-7.66-7.24-7.66h-5.55a8.05,8.05,0,0,0-3.1.57A7.15,7.15,0,0,0,165,3.36L138.92,4c-5,.2-6.74,3.6-6.74,6.71V13C129.6,5,121.77,0,111.11,0c-13.16,0-22,7.65-22,19,0,.66,0,1.32.11,2a19.66,19.66,0,0,0-.11,2,19.09,19.09,0,0,0,1.64,8,6.31,6.31,0,0,0-5.24,6.56v9.55a6.69,6.69,0,0,0,1.6,4.57Z"/><path class="cls-1" d="M316.08,81.32H307.8c-7.53,0-8.34,6.26-8.34,9V94c-4.88-8.91-14.67-14.45-27-14.45-13.25,0-23.54,6.37-28,16.42V91.16c0-7.8-5.23-9-8.35-9h-8.27a8,8,0,0,0-6,2.16,9.23,9.23,0,0,0-4.93-1.28h-8.27a8.9,8.9,0,0,0-4.72,1.16,6.32,6.32,0,0,0-.54-.64,8.29,8.29,0,0,0-6.49-2.28l-32.72.88c-5,.21-6.81,2.94-7.41,5.25A7.18,7.18,0,0,0,155,83.73c-2.21-2.41-5.37-2.42-6.53-2.41l-52.71.88c-7.34,0-7.91,5.78-7.91,7.55V98a5.08,5.08,0,0,0-.5-.54,8,8,0,0,0-5.94-1.93l-.72,0V92c0-7.8-5.23-9-8.34-9H64.05c-7.53,0-8.35,6.26-8.35,9v6.57C50.45,91,41.55,86.51,30.43,86.51,12.23,86.51,0,98.63,0,116.67c0,.63,0,1.27.06,2s-.06,1.38-.06,2c0,18,12.23,30.08,30.43,30.08,11.12,0,20-4.49,25.27-12.07v11.56c0,2.7.82,9,8.35,9h8.27c3.11,0,8.34-1.16,8.34-9v-7l1.11,0a8.67,8.67,0,0,0,5.09-1.62v3.23c0,7,6,7.55,8,7.55h0l15.27-.2v10.42c0,7.41,4.53,9,8.34,9h8.27c3.81,0,8.35-1.55,8.35-9V151.72l15.32-.26c1.86,0,7.91-.55,7.91-7.55V131.63c0-3.93-1.91-5.83-3.91-6.73l2.09-28.85v6a7.44,7.44,0,0,0,2.14,5.62,7.86,7.86,0,0,0,5.9,1.93l14.47-.38L176,147.58a11.61,11.61,0,0,0,.08,2.91l-.08,1.09c-.1,1.09-.38,4.41,1.94,6.93a8.4,8.4,0,0,0,6.38,2.45h8.19c6.48,0,7.83-4.68,8.2-7.36.76,2.7,2.77,5.6,7.9,5.6h8.27a8.45,8.45,0,0,0,6-2.16,8.66,8.66,0,0,0,4.88,1.28h8.27c3.12,0,8.35-1.16,8.35-9V123.77a27,27,0,0,0,16.21,14.52c0,.31,0,.59,0,.8l.79,25.27v4.14c.21,4.83,3.3,7.78,8,7.78h.42l40.63-.88c5-.18,8-3,8.16-7.77v-4.14l.78-25.06c2.53-.89,4.94-3.12,4.94-8.42V90.28C324.42,82.48,319.19,81.32,316.08,81.32Zm-186.46,43.1L94.76,125a8.28,8.28,0,0,0-5.3,1.57v-3.17a8.32,8.32,0,0,0-.92-4,8.52,8.52,0,0,0,.92-3.94v-8.33c1.14,1.39,3.05,2.5,6.27,2.5l35.05-.75Z"/><path class="cls-2" d="M30.48,140.93c-15.51,0-24.54-9.75-25.36-23.08,0,.66-.07,1.32-.07,2,0,14.34,9.16,25.08,25.43,25.08S56,134.19,56,119.85c0-.68,0-1.34-.06-2C55.1,131.18,45.91,140.93,30.48,140.93Z"/><path class="cls-2" d="M30.48,104.06c-7.3,0-11,4.75-11,11.79a18.37,18.37,0,0,0,.11,2c.66-5.92,4.3-9.78,10.88-9.78s10.31,3.86,11,9.78a16.12,16.12,0,0,0,.12-2C41.57,108.81,37.88,104.06,30.48,104.06Z"/><path class="cls-2" d="M81.61,133.36l-5.89.18v4l5.89-.18c2.11-.09,2.91-.53,2.91-2.55v-4C84.52,132.83,83.72,133.27,81.61,133.36Z"/><path class="cls-2" d="M81.61,113.12l-5.89.18v4l5.89-.18c2.11-.09,2.91-.53,2.91-2.55v-4C84.52,112.59,83.72,113,81.61,113.12Z"/><path class="cls-2" d="M72.37,149.38H64.1c-2.46,0-3.34-.88-3.34-4v4c0,3.08.88,4,3.34,4h8.27c2.55,0,3.35-.88,3.35-4v-4C75.72,148.5,74.92,149.38,72.37,149.38Z"/><path class="cls-2" d="M115.14,142.25l-20.33.26c-2.11,0-2.9-.53-2.9-2.55v4c0,2,.79,2.55,2.9,2.55l20.33-.26Z"/><path class="cls-2" d="M95.78,103.74l40.45-.87.29-4-40.74.88c-2.11,0-2.9-.52-2.9-2.55v4C92.88,103.22,93.67,103.74,95.78,103.74Z"/><path class="cls-2" d="M126.76,161.69h-8.28c-2.72,0-3.34-.88-3.34-4v4c0,3.08.62,4,3.34,4h8.28c2.72,0,3.34-.88,3.34-4v-4C130.1,160.81,129.48,161.69,126.76,161.69Z"/><path class="cls-2" d="M150.43,141.63,130.1,142v4l20.33-.35c2.11,0,2.9-.53,2.9-2.55v-4C153.33,141.1,152.54,141.63,150.43,141.63Z"/><polygon class="cls-2" points="197.68 127.94 205.34 127.77 205.34 123.77 197.68 123.94 197.68 127.94"/><path class="cls-2" d="M195.92,147.18c-.26,3.08-.79,4-3.34,4H184.4c-1.75,0-2.82-.46-3.21-1.81l-.14,1.85c-.26,3.08.88,4,3.35,4h8.18c2.55,0,3.08-.88,3.34-4Z"/><path class="cls-2" d="M184.75,99.22l-20.33.52c-2.11.09-2.9-.52-2.9-2.55v4c0,2,.79,2.64,2.9,2.55l20-.52Z"/><path class="cls-2" d="M217,149.38h-8.28c-2.46,0-3.34-.88-3.34-4v4c0,3.08.88,4,3.34,4H217c2.55,0,3.34-.88,3.34-4v-4C220.3,148.5,219.51,149.38,217,149.38Z"/><path class="cls-2" d="M236.14,148.5h-8.27c-2.47,0-3.35-.88-3.35-4v4c0,3.08.88,4,3.35,4h8.27c2.55,0,3.34-.88,3.34-4v-4C239.48,147.62,238.69,148.5,236.14,148.5Z"/><path class="cls-2" d="M297.91,111.05c0-.67,0-1.34-.08-2-.89,11.7-9.61,21.32-25.35,21.32s-24.46-9.62-25.35-21.32c0,.66-.08,1.33-.08,2,0,12.58,8.8,23.32,25.43,23.32S297.91,123.63,297.91,111.05Z"/><polygon class="cls-2" points="281.11 146.21 281.11 150.21 299.15 149.77 299.15 145.77 281.11 146.21"/><path class="cls-2" d="M272.48,97.11c-7.65,0-11,4.84-11,9.94a11.21,11.21,0,0,0,.18,2c.78-4.3,4.17-8,10.82-8s10,3.65,10.82,8a11.21,11.21,0,0,0,.18-2C283.48,102,280.14,97.11,272.48,97.11Z"/><path class="cls-2" d="M266.5,167.46c.09,2,.88,3.08,3.34,3l40.57-.88c2.46-.09,3.26-1,3.34-3v-4c-.08,2-.88,2.9-3.34,3l-40.57.88c-2.46.09-3.25-1-3.34-3Z"/><path class="cls-2" d="M316.13,129.14h-8.27c-2.47,0-3.35-.88-3.35-4v4c0,3.08.88,4,3.35,4h8.27c2.55,0,3.34-.88,3.34-4v-4C319.47,128.26,318.68,129.14,316.13,129.14Z"/><g id="야구게임"><g class="cls-3"><path class="cls-4" d="M5.05,116c0-14.35,9.16-25.17,25.43-25.17S56,101.6,56,116,46.68,141,30.48,141,5.05,130.29,5.05,116Zm36.52,0c0-7-3.69-11.79-11.09-11.79s-11,4.75-11,11.79,3.69,11.7,11,11.7S41.57,122.9,41.57,116ZM60.76,91.31c0-3.08.88-4,3.34-4h8.27c2.55,0,3.35.88,3.35,4V100l5.89-.18c2.11-.08,2.91.53,2.91,2.56v8.27c0,2-.8,2.46-2.91,2.55l-5.89.18v6.86l5.89-.18c2.11-.08,2.91.53,2.91,2.56v8.27c0,2-.8,2.46-2.91,2.55l-5.89.18v11.88c0,3.08-.8,4-3.35,4H64.1c-2.46,0-3.34-.88-3.34-4Z"/><path class="cls-4" d="M134.32,128.62,136.52,99l-40.74.88c-2.11,0-2.9-.52-2.9-2.55V89c0-2,.79-2.55,2.9-2.55l52.8-.88c2.73,0,3.61.88,3.34,4l-2.81,38.81h1.32c2.11,0,2.9.52,2.9,2.55v8.27c0,2-.79,2.55-2.9,2.55l-20.33.35v15.75c0,3.09-.62,4-3.34,4h-8.28c-2.72,0-3.34-.87-3.34-4V142.35l-20.33.26c-2.11,0-2.9-.53-2.9-2.55v-8.27c0-2,.79-2.55,2.9-2.55Z"/><path class="cls-4" d="M184.75,99.32l-20.33.52c-2.11.09-2.9-.52-2.9-2.55V89c0-2,.79-2.46,2.9-2.55l32.65-.88c2.72-.09,3.6.88,3.34,4l-1.67,21.12,6.6-.18V91.31c0-3.08.88-4,3.34-4H217c2.55,0,3.34.88,3.34,4v54.21c0,3.08-.79,4-3.34,4h-8.28c-2.46,0-3.34-.88-3.34-4V123.87l-7.66.17-1.76,23.24c-.26,3.08-.79,4-3.34,4H184.4c-2.47,0-3.61-.88-3.35-4Zm39.77-8.89c0-3.08.88-4,3.35-4h8.27c2.55,0,3.34.88,3.34,4v54.21c0,3.08-.79,4-3.34,4h-8.27c-2.47,0-3.35-.88-3.35-4Z"/><path class="cls-4" d="M247.05,107.15c0-12.58,8.8-23.32,25.43-23.32s25.43,10.74,25.43,23.32-8.8,23.32-25.43,23.32S247.05,119.73,247.05,107.15Zm36.43,0c0-5.11-3.34-9.94-11-9.94s-11,4.83-11,9.94,3.35,9.94,11,9.94S283.48,112.34,283.48,107.15Zm-13.64,59.4c-2.46.08-3.25-1-3.34-3l-.79-25.35c-.09-2.37.35-3.34,2.9-3.43l42.15-.88c2.64-.09,3.87,1.06,3.78,3.43l-.79,25.34c-.08,2-.88,2.91-3.34,3Zm11.27-11.62,18-.44v-8.62l-18,.44Zm23.4-65.38c0-3.08.88-4,3.35-4h8.27c2.55,0,3.34.88,3.34,4v35.73c0,3.08-.79,4-3.34,4h-8.27c-2.47,0-3.35-.88-3.35-4Z"/></g></g><path class="cls-2" d="M111.16,16.08c3.68,0,5.7,1.77,6.39,4.14a7.32,7.32,0,0,0,.28-2c0-3.31-2-6.14-6.67-6.14s-6.67,2.83-6.67,6.14a7.32,7.32,0,0,0,.28,2C105.46,17.85,107.48,16.08,111.16,16.08Z"/><path class="cls-2" d="M116.17,31.79v2.89l3.88-.07a12.78,12.78,0,0,0,8.1-12.39,14.2,14.2,0,0,0-.14-2C127.24,26.29,123,30.46,116.17,31.79Z"/><path class="cls-2" d="M103,34.9l3.14,0V31.79c-6.81-1.33-11.06-5.5-11.84-11.54a15.77,15.77,0,0,0-.13,2A12.86,12.86,0,0,0,103,34.9Z"/><path class="cls-2" d="M128.33,61.29l-33.93.53c-1.71,0-2.24-.59-2.24-2.65v4c0,2.06.53,2.65,2.24,2.65l33.93-.53c1.59,0,1.95-.47,1.95-2.06v-4C130.28,60.82,129.92,61.29,128.33,61.29Z"/><path class="cls-2" d="M129.8,43.41,92.51,44c-1.41,0-1.94-.35-1.94-1.71v4c0,1.3.49,1.67,1.76,1.71.27-.91.9-1.22,2.07-1.22H100c1.15,0,1.75.27,2,1.07l27.81-.44c1.42,0,1.95-.35,1.95-1.71v-4C131.75,43.06,131.22,43.41,129.8,43.41Z"/><path class="cls-2" d="M164.85,51.56l-24.19.59c-1.71.06-2.19-.59-2.25-2.66v4c.06,2.07.54,2.72,2.25,2.66l24.19-.59c1.41-.06,2-.36,2-1.72v-4C166.8,51.2,166.26,51.5,164.85,51.56Z"/><path class="cls-2" d="M166.8,30.84c-.06,2.07-.48,2.42-2.19,2.6L148.33,34.8l0,4,16.23-1.35c1.71-.18,2.13-.53,2.19-2.6Z"/><path class="cls-2" d="M156.86,20.8l.08-4-17.76.41c-1.41.06-2-.35-2-1.71v4c0,1.36.54,1.77,2,1.71Z"/><path class="cls-2" d="M185.15,33.74l-4,.11v4l4-.11c1.41-.06,1.94-.36,1.94-1.71V32C187.09,33.38,186.56,33.68,185.15,33.74Z"/><path class="cls-2" d="M179,50.38H173.4c-1.65,0-2.24-.59-2.24-2.66v4c0,2.07.59,2.66,2.24,2.66H179c1.71,0,2.24-.59,2.24-2.66v-4C181.19,49.79,180.66,50.38,179,50.38Z"/><path class="cls-2" d="M208.68,15.33a7,7,0,0,0-7.37,7.25,7.94,7.94,0,0,0,.25,2,7.46,7.46,0,0,1,14.25,0,7.94,7.94,0,0,0,.25-2A7,7,0,0,0,208.68,15.33Z"/><path class="cls-2" d="M206,41.76h5.55a2.24,2.24,0,0,1,1.74.53c8.13-1.84,12.42-8.53,12.42-15.71a16.79,16.79,0,0,0-.13-2c-.86,7.63-6.66,14.23-16.93,14.23s-16.06-6.6-16.92-14.23a16.79,16.79,0,0,0-.13,2c0,7.25,4.36,14,12.64,15.76A2.14,2.14,0,0,1,206,41.76Z"/><path class="cls-2" d="M237,61.23l-31,.59c-1.71.06-2.24-.59-2.24-2.65v4c0,2.06.53,2.71,2.24,2.65l31-.59c1.59-.06,2-.47,2-2.06v-4C239,60.76,238.6,61.17,237,61.23Z"/><path class="cls-2" d="M238,42.12h-5.54c-1.66,0-2.25-.59-2.25-2.66v4c0,2.07.59,2.66,2.25,2.66H238c1.71,0,2.24-.59,2.24-2.66v-4C240.19,41.53,239.66,42.12,238,42.12Z"/><path class="cls-4" d="M106.14,35V31.89c-7.55-1.48-12-6.43-12-13.57,0-8.5,6.54-14,17-14s17,5.55,17,14.05c0,7.14-4.42,12.09-12,13.57v2.89l13.63-.24c1.42,0,1.95.36,1.95,1.71V41.8c0,1.36-.53,1.71-1.95,1.71l-37.29.59c-1.41,0-1.94-.35-1.94-1.71V36.85c0-1.36.53-1.72,1.94-1.72Zm-11.74,27c-1.71,0-2.24-.59-2.24-2.65V49.53c0-2.06.59-2.65,2.24-2.65H100c1.71,0,2.24.59,2.24,2.65v3.31l26.26-.42c1.41,0,1.83.47,1.83,2.07v4.84c0,1.59-.36,2.06-1.95,2.06Zm23.43-43.6c0-3.31-2-6.14-6.67-6.14s-6.67,2.83-6.67,6.14,2,6.13,6.67,6.13S117.83,21.62,117.83,18.32Z"/><path class="cls-4" d="M148.33,34.9l.12,8.32,16.4-.42c1.41,0,2,.36,2,1.72v5.42c0,1.36-.54,1.66-2,1.72l-24.19.59c-1.71,0-2.19-.59-2.25-2.66L138.12,30c-.06-2.06.41-2.48,2.24-2.65l16.4-1.6.18-8.85-17.76.41c-1.41.06-2-.35-2-1.71V9.94c0-1.36.54-1.65,2-1.71l26-.59c1.83-.06,2.3.59,2.25,2.65l-.65,20.65c-.06,2.07-.48,2.42-2.19,2.6Zm22.83-23.43c0-2.06.59-2.65,2.24-2.65H179c1.71,0,2.24.59,2.24,2.65V25l4-.12c1.41-.06,1.94.35,1.94,1.71v5.54c0,1.36-.53,1.66-1.94,1.72l-4,.11V47.82c0,2.07-.53,2.66-2.24,2.66H173.4c-1.65,0-2.24-.59-2.24-2.66Z"/><path class="cls-4" d="M191.63,22.68c0-8.43,5.9-16.22,17.05-16.22s17.06,7.79,17.06,16.22-5.9,16.23-17.06,16.23S191.63,31.12,191.63,22.68Zm24.43,0a7.38,7.38,0,0,0-14.75,0,7.38,7.38,0,0,0,14.75,0ZM206,61.92c-1.71.06-2.24-.59-2.24-2.65V44.52c0-2.07.59-2.66,2.24-2.66h5.55c1.71,0,2.24.59,2.24,2.66v8.32l23.31-.48c1.41-.06,1.83.48,1.83,2.07v4.84c0,1.59-.36,2-2,2.06Zm24.13-51.63c0-2.06.59-2.65,2.25-2.65H238c1.71,0,2.24.59,2.24,2.65V39.56c0,2.06-.53,2.65-2.24,2.65h-5.54c-1.66,0-2.25-.59-2.25-2.65Z"/></svg>